<svg width="1440" height="1024" viewBox="0 0 1440 1024" fill="none" xmlns="http://www.w3.org/2000/svg">
<rect width="1440" height="1024" fill="#1D262D"/>
<path fill-rule="evenodd" clip-rule="evenodd" d="M706.934 462.212L607.734 384.894V539.529L706.934 462.212Z" fill="#FFC100"/>
<path fill-rule="evenodd" clip-rule="evenodd" d="M813.867 393.355V527L845.524 576V328L713.5 431.868L581.477 328V576L613.279 510.645V393.355L713.5 472.278L813.867 393.355Z" fill="#FFC100"/>
<path d="M613.279 528.151L687.825 469.506L714.23 447.624L728.818 460.024L814.888 528.151L845.524 576L713.5 472.132L581.477 576V328L613.279 393.355V528.151Z" fill="#FFC100"/>
<path fill-rule="evenodd" clip-rule="evenodd" d="M706.934 462.212L607.734 384.894V539.529L706.934 462.212Z" fill="#1D262D"/>
<path fill-rule="evenodd" clip-rule="evenodd" d="M728.5 460L814 392.5V527L728.5 460Z" fill="white"/>
<path d="M781.19 449.958H783.961V463.379H773.166V460.753H781.19V449.958Z" fill="#699DEE"/>
<path d="M782.793 483.511C770.248 483.511 760.182 473.299 760.182 460.899C760.182 448.499 770.393 438.287 782.793 438.287C795.339 438.287 805.405 448.499 805.405 460.899H802.488C802.488 449.958 793.589 441.205 782.793 441.205C771.998 441.205 763.099 450.104 763.099 460.899C763.099 471.694 771.998 480.593 782.793 480.593V483.511Z" fill="#1D262D"/>
<path d="M803.946 467.901C802.779 464.546 800.591 460.461 798.402 457.981L803.946 460.024L809.489 457.981C807.301 460.461 805.113 464.692 803.946 467.901Z" fill="#1D262D"/>
<path d="M573.878 653.545H567.993V634.363L557.639 652.579C557.384 653.043 557.025 653.395 556.561 653.635C556.111 653.874 555.625 653.994 555.101 653.994C554.591 653.994 554.112 653.874 553.663 653.635C553.229 653.395 552.884 653.043 552.63 652.579L542.23 634.363V653.545H536.391V623.829C536.391 623.155 536.585 622.556 536.975 622.032C537.379 621.508 537.903 621.156 538.547 620.977C538.861 620.902 539.176 620.879 539.49 620.909C539.805 620.924 540.104 620.992 540.389 621.111C540.688 621.216 540.958 621.373 541.197 621.583C541.437 621.778 541.639 622.017 541.804 622.302L555.101 645.414L568.397 622.302C568.742 621.733 569.214 621.328 569.812 621.089C570.426 620.849 571.063 620.812 571.722 620.977C572.351 621.156 572.867 621.508 573.271 622.032C573.676 622.556 573.878 623.155 573.878 623.829V653.545Z" fill="#D8D8D8"/>
<path d="M606.671 655.881C606.671 656.884 606.544 657.783 606.289 658.576C606.035 659.385 605.698 660.089 605.278 660.688C604.859 661.301 604.372 661.818 603.818 662.237C603.264 662.672 602.68 663.023 602.066 663.293C601.467 663.562 600.861 663.757 600.247 663.877C599.633 664.012 599.049 664.079 598.495 664.079H587.961V658.239H598.495C599.274 658.239 599.858 658.037 600.247 657.633C600.636 657.229 600.831 656.645 600.831 655.881V629.265H606.671V655.881ZM598.495 653.545H587.961C587.122 653.545 586.224 653.403 585.266 653.118C584.322 652.834 583.439 652.369 582.615 651.726C581.792 651.067 581.11 650.221 580.571 649.188C580.032 648.139 579.763 646.859 579.763 645.347V629.265H585.603V645.347C585.603 646.11 585.805 646.694 586.209 647.099C586.613 647.503 587.212 647.705 588.006 647.705H598.495V653.545Z" fill="#D8D8D8"/>
<path d="M659.993 640.068C659.993 642.03 659.649 643.834 658.96 645.481C658.286 647.129 657.35 648.551 656.152 649.749C654.954 650.932 653.532 651.86 651.885 652.534C650.238 653.208 648.448 653.545 646.517 653.545H630.749C630.33 653.545 629.94 653.47 629.581 653.32C629.222 653.171 628.907 652.968 628.638 652.714C628.383 652.444 628.181 652.13 628.031 651.771C627.882 651.411 627.807 651.022 627.807 650.603V624.278C627.807 623.874 627.882 623.492 628.031 623.133C628.181 622.773 628.383 622.459 628.638 622.189C628.907 621.92 629.222 621.71 629.581 621.561C629.94 621.411 630.33 621.336 630.749 621.336H646.517C648.448 621.336 650.238 621.673 651.885 622.347C653.532 623.021 654.954 623.956 656.152 625.154C657.35 626.337 658.286 627.76 658.96 629.422C659.649 631.069 659.993 632.866 659.993 634.812V640.068ZM654.153 634.812C654.153 633.674 653.966 632.634 653.592 631.69C653.232 630.747 652.716 629.946 652.042 629.287C651.368 628.613 650.56 628.097 649.616 627.737C648.688 627.363 647.655 627.176 646.517 627.176H633.646V647.705H646.517C647.655 647.705 648.688 647.525 649.616 647.166C650.56 646.792 651.368 646.275 652.042 645.616C652.716 644.942 653.232 644.141 653.592 643.213C653.966 642.27 654.153 641.221 654.153 640.068V634.812Z" fill="#D8D8D8"/>
<path d="M686.183 635.104H673.043C672.249 635.104 671.65 635.307 671.246 635.711C670.842 636.1 670.64 636.677 670.64 637.44V653.545H664.8V637.44C664.8 636.437 664.927 635.539 665.182 634.745C665.436 633.951 665.773 633.255 666.192 632.656C666.627 632.042 667.121 631.526 667.675 631.106C668.229 630.672 668.805 630.32 669.404 630.051C670.018 629.781 670.632 629.587 671.246 629.467C671.875 629.332 672.459 629.265 672.998 629.265H686.183V635.104Z" fill="#D8D8D8"/>
<path d="M716.078 637.306C716.078 638.114 715.936 638.99 715.651 639.934C715.367 640.862 714.903 641.73 714.259 642.539C713.63 643.333 712.799 643.999 711.766 644.538C710.747 645.077 709.505 645.347 708.037 645.347H697.503V639.799H708.037C708.831 639.799 709.445 639.559 709.879 639.08C710.313 638.586 710.53 637.979 710.53 637.261C710.53 636.497 710.283 635.898 709.789 635.464C709.31 635.03 708.726 634.812 708.037 634.812H697.503C696.709 634.812 696.095 635.06 695.661 635.554C695.227 636.033 695.01 636.632 695.01 637.351V645.504C695.01 646.283 695.249 646.889 695.729 647.323C696.223 647.757 696.829 647.975 697.548 647.975H708.037V653.545H697.503C696.694 653.545 695.818 653.403 694.875 653.118C693.947 652.834 693.078 652.377 692.27 651.748C691.476 651.104 690.81 650.273 690.271 649.255C689.731 648.222 689.462 646.971 689.462 645.504V637.306C689.462 636.497 689.604 635.629 689.889 634.7C690.173 633.757 690.63 632.888 691.259 632.095C691.903 631.286 692.734 630.612 693.752 630.073C694.785 629.534 696.035 629.265 697.503 629.265H708.037C708.846 629.265 709.714 629.407 710.643 629.691C711.586 629.976 712.454 630.44 713.248 631.084C714.057 631.713 714.73 632.544 715.27 633.577C715.809 634.595 716.078 635.838 716.078 637.306Z" fill="#D8D8D8"/>
<path d="M744.896 645.504C744.896 646.312 744.753 647.188 744.469 648.132C744.184 649.06 743.72 649.929 743.076 650.737C742.447 651.531 741.616 652.197 740.583 652.736C739.565 653.275 738.322 653.545 736.854 653.545H726.32C725.512 653.545 724.636 653.403 723.692 653.118C722.764 652.834 721.896 652.377 721.087 651.748C720.293 651.104 719.627 650.273 719.088 649.255C718.549 648.222 718.279 646.971 718.279 645.504C718.279 644.695 718.422 643.819 718.706 642.876C718.991 641.933 719.447 641.064 720.076 640.271C720.72 639.462 721.551 638.788 722.569 638.249C723.603 637.71 724.853 637.44 726.32 637.44H736.854V643.011H726.32C725.527 643.011 724.913 643.258 724.479 643.752C724.044 644.231 723.827 644.83 723.827 645.549C723.827 646.312 724.074 646.911 724.568 647.346C725.077 647.765 725.676 647.975 726.365 647.975H736.854C737.648 647.975 738.262 647.735 738.696 647.256C739.131 646.777 739.348 646.178 739.348 645.459V637.306C739.348 636.542 739.108 635.936 738.629 635.486C738.165 635.037 737.573 634.812 736.854 634.812H724.029V629.265H736.854C737.663 629.265 738.532 629.407 739.46 629.691C740.403 629.976 741.272 630.44 742.065 631.084C742.874 631.713 743.548 632.544 744.087 633.577C744.626 634.595 744.896 635.838 744.896 637.306V645.504Z" fill="#D8D8D8"/>
<path d="M771.557 653.545H765.717V637.44C765.717 636.677 765.515 636.1 765.11 635.711C764.706 635.307 764.107 635.104 763.313 635.104H755.722V653.545H749.882V632.162C749.882 631.758 749.957 631.383 750.106 631.039C750.256 630.68 750.466 630.373 750.735 630.118C751.005 629.849 751.319 629.639 751.679 629.489C752.038 629.34 752.42 629.265 752.824 629.265H763.358C764.167 629.265 765.035 629.407 765.964 629.691C766.892 629.976 767.776 630.433 768.614 631.062V629.265H776.521C777.075 629.265 777.659 629.332 778.272 629.467C778.886 629.587 779.493 629.781 780.092 630.051C780.706 630.32 781.29 630.672 781.844 631.106C782.398 631.526 782.884 632.042 783.304 632.656C783.723 633.255 784.06 633.951 784.314 634.745C784.569 635.539 784.696 636.437 784.696 637.44V653.545H778.856V637.44C778.856 636.677 778.662 636.1 778.272 635.711C777.898 635.307 777.314 635.104 776.521 635.104H771.265C771.459 635.823 771.557 636.602 771.557 637.44V653.545Z" fill="#D8D8D8"/>
<path d="M811.582 634.498H832.089V621.336H837.929V653.545H832.089V640.383H811.582V653.545H805.742V621.336H811.582V634.498Z" fill="#D8D8D8"/>
<path d="M870.542 650.603C870.542 651.022 870.467 651.411 870.317 651.771C870.168 652.13 869.958 652.444 869.688 652.714C869.434 652.968 869.127 653.171 868.768 653.32C868.423 653.47 868.049 653.545 867.645 653.545H854.438C853.719 653.545 852.948 653.463 852.124 653.298C851.315 653.133 850.514 652.871 849.721 652.512C848.927 652.137 848.156 651.673 847.407 651.119C846.673 650.55 846.03 649.869 845.476 649.075C844.922 648.267 844.472 647.338 844.128 646.29C843.798 645.242 843.634 644.059 843.634 642.741V629.265H849.474V642.741C849.474 643.505 849.601 644.194 849.855 644.808C850.125 645.407 850.484 645.923 850.934 646.357C851.383 646.792 851.907 647.129 852.506 647.368C853.12 647.593 853.779 647.705 854.482 647.705H864.702V629.265H870.542V650.603Z" fill="#D8D8D8"/>
<path d="M902.796 645.347C902.796 645.901 902.729 646.485 902.594 647.099C902.474 647.713 902.279 648.326 902.01 648.94C901.74 649.539 901.388 650.116 900.954 650.67C900.535 651.224 900.018 651.718 899.404 652.152C898.805 652.572 898.109 652.909 897.315 653.163C896.522 653.418 895.623 653.545 894.62 653.545H884.086C883.532 653.545 882.948 653.485 882.334 653.365C881.72 653.23 881.106 653.028 880.492 652.759C879.893 652.489 879.317 652.145 878.763 651.726C878.209 651.291 877.715 650.775 877.28 650.176C876.861 649.562 876.524 648.858 876.27 648.064C876.015 647.256 875.888 646.35 875.888 645.347V619H881.728V645.347C881.728 646.065 881.952 646.642 882.401 647.076C882.851 647.495 883.412 647.705 884.086 647.705H894.62C895.354 647.705 895.923 647.488 896.327 647.054C896.746 646.619 896.956 646.05 896.956 645.347V637.44C896.956 636.707 896.739 636.138 896.305 635.733C895.87 635.314 895.309 635.104 894.62 635.104H884.086V629.265H894.62C895.174 629.265 895.758 629.332 896.372 629.467C896.986 629.587 897.592 629.781 898.191 630.051C898.805 630.32 899.389 630.672 899.943 631.106C900.497 631.526 900.984 632.042 901.403 632.656C901.823 633.255 902.16 633.951 902.414 634.745C902.669 635.539 902.796 636.437 902.796 637.44V645.347Z" fill="#D8D8D8"/>
<path d="M756.767 689.545V676.695H758.261V689.545H756.767ZM768.166 689.545V683.313C768.166 682.528 767.987 681.942 767.63 681.556C767.272 681.169 766.713 680.976 765.951 680.976C764.943 680.976 764.205 681.248 763.736 681.793C763.268 682.338 763.033 683.237 763.033 684.491V689.545H761.574V679.912H762.761L762.998 681.23H763.068C763.367 680.756 763.786 680.39 764.325 680.132C764.864 679.868 765.465 679.736 766.127 679.736C767.287 679.736 768.16 680.018 768.746 680.58C769.332 681.137 769.625 682.03 769.625 683.261V689.545H768.166ZM776.973 681.046H774.521V689.545H773.062V681.046H771.339V680.387L773.062 679.859V679.323C773.062 676.956 774.096 675.772 776.164 675.772C776.674 675.772 777.271 675.875 777.957 676.08L777.579 677.249C777.017 677.067 776.536 676.977 776.138 676.977C775.587 676.977 775.18 677.161 774.916 677.53C774.652 677.894 774.521 678.479 774.521 679.288V679.912H776.973V681.046ZM780.189 689.545H778.73V679.912H780.189V689.545ZM778.607 677.302C778.607 676.968 778.689 676.725 778.854 676.572C779.018 676.414 779.223 676.335 779.469 676.335C779.703 676.335 779.905 676.414 780.075 676.572C780.245 676.73 780.33 676.974 780.33 677.302C780.33 677.63 780.245 677.876 780.075 678.04C779.905 678.198 779.703 678.277 779.469 678.277C779.223 678.277 779.018 678.198 778.854 678.04C778.689 677.876 778.607 677.63 778.607 677.302ZM789.875 689.545V683.313C789.875 682.528 789.696 681.942 789.339 681.556C788.981 681.169 788.422 680.976 787.66 680.976C786.652 680.976 785.914 681.248 785.445 681.793C784.977 682.338 784.742 683.237 784.742 684.491V689.545H783.283V679.912H784.47L784.707 681.23H784.777C785.076 680.756 785.495 680.39 786.034 680.132C786.573 679.868 787.174 679.736 787.836 679.736C788.996 679.736 789.869 680.018 790.455 680.58C791.041 681.137 791.334 682.03 791.334 683.261V689.545H789.875ZM795.799 689.545H794.34V679.912H795.799V689.545ZM794.217 677.302C794.217 676.968 794.299 676.725 794.463 676.572C794.627 676.414 794.832 676.335 795.078 676.335C795.312 676.335 795.515 676.414 795.685 676.572C795.854 676.73 795.939 676.974 795.939 677.302C795.939 677.63 795.854 677.876 795.685 678.04C795.515 678.198 795.312 678.277 795.078 678.277C794.832 678.277 794.627 678.198 794.463 678.04C794.299 677.876 794.217 677.63 794.217 677.302ZM802.004 688.517C802.262 688.517 802.511 688.499 802.751 688.464C802.991 688.423 803.182 688.382 803.322 688.341V689.457C803.164 689.533 802.93 689.595 802.619 689.642C802.314 689.694 802.039 689.721 801.793 689.721C799.93 689.721 798.998 688.739 798.998 686.776V681.046H797.618V680.343L798.998 679.736L799.613 677.68H800.457V679.912H803.252V681.046H800.457V686.715C800.457 687.295 800.595 687.74 800.87 688.051C801.146 688.361 801.523 688.517 802.004 688.517ZM809.325 689.721C807.901 689.721 806.776 689.287 805.95 688.42C805.13 687.553 804.72 686.349 804.72 684.808C804.72 683.255 805.101 682.021 805.862 681.107C806.63 680.193 807.658 679.736 808.947 679.736C810.154 679.736 811.109 680.135 811.812 680.932C812.516 681.723 812.867 682.769 812.867 684.069V684.992H806.231C806.261 686.123 806.545 686.981 807.084 687.567C807.629 688.153 808.394 688.446 809.378 688.446C810.415 688.446 811.44 688.229 812.454 687.796V689.097C811.938 689.319 811.449 689.478 810.986 689.571C810.529 689.671 809.976 689.721 809.325 689.721ZM808.93 680.958C808.156 680.958 807.538 681.21 807.075 681.714C806.618 682.218 806.349 682.915 806.267 683.806H811.303C811.303 682.886 811.098 682.183 810.688 681.696C810.277 681.204 809.691 680.958 808.93 680.958ZM823.15 688.517C823.408 688.517 823.657 688.499 823.897 688.464C824.138 688.423 824.328 688.382 824.469 688.341V689.457C824.311 689.533 824.076 689.595 823.766 689.642C823.461 689.694 823.186 689.721 822.939 689.721C821.076 689.721 820.145 688.739 820.145 686.776V681.046H818.765V680.343L820.145 679.736L820.76 677.68H821.604V679.912H824.398V681.046H821.604V686.715C821.604 687.295 821.741 687.74 822.017 688.051C822.292 688.361 822.67 688.517 823.15 688.517ZM832.994 689.545V683.313C832.994 682.528 832.815 681.942 832.458 681.556C832.101 681.169 831.541 680.976 830.779 680.976C829.766 680.976 829.024 681.251 828.556 681.802C828.093 682.353 827.861 683.255 827.861 684.509V689.545H826.402V675.869H827.861V680.009C827.861 680.507 827.838 680.92 827.791 681.248H827.879C828.166 680.785 828.573 680.422 829.101 680.158C829.634 679.889 830.24 679.754 830.92 679.754C832.098 679.754 832.979 680.035 833.565 680.598C834.157 681.154 834.453 682.042 834.453 683.261V689.545H832.994ZM841.528 689.721C840.104 689.721 838.979 689.287 838.153 688.42C837.333 687.553 836.923 686.349 836.923 684.808C836.923 683.255 837.304 682.021 838.065 681.107C838.833 680.193 839.861 679.736 841.15 679.736C842.357 679.736 843.312 680.135 844.016 680.932C844.719 681.723 845.07 682.769 845.07 684.069V684.992H838.435C838.464 686.123 838.748 686.981 839.287 687.567C839.832 688.153 840.597 688.446 841.581 688.446C842.618 688.446 843.644 688.229 844.657 687.796V689.097C844.142 689.319 843.652 689.478 843.189 689.571C842.732 689.671 842.179 689.721 841.528 689.721ZM841.133 680.958C840.359 680.958 839.741 681.21 839.278 681.714C838.821 682.218 838.552 682.915 838.47 683.806H843.506C843.506 682.886 843.301 682.183 842.891 681.696C842.48 681.204 841.895 680.958 841.133 680.958ZM856.584 681.046H854.132V689.545H852.673V681.046H850.95V680.387L852.673 679.859V679.323C852.673 676.956 853.707 675.772 855.775 675.772C856.285 675.772 856.883 675.875 857.568 676.08L857.19 677.249C856.628 677.067 856.147 676.977 855.749 676.977C855.198 676.977 854.791 677.161 854.527 677.53C854.264 677.894 854.132 678.479 854.132 679.288V679.912H856.584V681.046ZM859.713 679.912V686.161C859.713 686.946 859.892 687.532 860.249 687.919C860.606 688.306 861.166 688.499 861.928 688.499C862.936 688.499 863.671 688.224 864.134 687.673C864.603 687.122 864.837 686.223 864.837 684.975V679.912H866.296V689.545H865.092L864.881 688.253H864.802C864.503 688.728 864.087 689.091 863.554 689.343C863.026 689.595 862.423 689.721 861.743 689.721C860.571 689.721 859.692 689.442 859.106 688.886C858.526 688.329 858.236 687.438 858.236 686.214V679.912H859.713ZM872.51 688.517C872.768 688.517 873.017 688.499 873.257 688.464C873.497 688.423 873.688 688.382 873.828 688.341V689.457C873.67 689.533 873.436 689.595 873.125 689.642C872.82 689.694 872.545 689.721 872.299 689.721C870.436 689.721 869.504 688.739 869.504 686.776V681.046H868.124V680.343L869.504 679.736L870.119 677.68H870.963V679.912H873.758V681.046H870.963V686.715C870.963 687.295 871.101 687.74 871.376 688.051C871.651 688.361 872.029 688.517 872.51 688.517ZM877.133 679.912V686.161C877.133 686.946 877.312 687.532 877.669 687.919C878.026 688.306 878.586 688.499 879.348 688.499C880.355 688.499 881.091 688.224 881.554 687.673C882.022 687.122 882.257 686.223 882.257 684.975V679.912H883.716V689.545H882.512L882.301 688.253H882.222C881.923 688.728 881.507 689.091 880.974 689.343C880.446 689.595 879.843 689.721 879.163 689.721C877.991 689.721 877.112 689.442 876.526 688.886C875.946 688.329 875.656 687.438 875.656 686.214V679.912H877.133ZM891.213 679.736C891.641 679.736 892.024 679.771 892.364 679.842L892.162 681.195C891.764 681.107 891.412 681.063 891.107 681.063C890.328 681.063 889.66 681.38 889.104 682.013C888.553 682.646 888.277 683.434 888.277 684.377V689.545H886.818V679.912H888.022L888.189 681.696H888.26C888.617 681.069 889.048 680.586 889.552 680.246C890.056 679.906 890.609 679.736 891.213 679.736ZM898.235 689.721C896.812 689.721 895.687 689.287 894.86 688.42C894.04 687.553 893.63 686.349 893.63 684.808C893.63 683.255 894.011 682.021 894.772 681.107C895.54 680.193 896.568 679.736 897.857 679.736C899.064 679.736 900.02 680.135 900.723 680.932C901.426 681.723 901.777 682.769 901.777 684.069V684.992H895.142C895.171 686.123 895.455 686.981 895.994 687.567C896.539 688.153 897.304 688.446 898.288 688.446C899.325 688.446 900.351 688.229 901.364 687.796V689.097C900.849 689.319 900.359 689.478 899.896 689.571C899.439 689.671 898.886 689.721 898.235 689.721ZM897.84 680.958C897.066 680.958 896.448 681.21 895.985 681.714C895.528 682.218 895.259 682.915 895.177 683.806H900.213C900.213 682.886 900.008 682.183 899.598 681.696C899.188 681.204 898.602 680.958 897.84 680.958Z" fill="#D8D8D8"/>
<path d="M596.523 359V541.154L582 576.857V577.154L714.024 473.285L846.047 577.154L814.391 527.116L729.341 461.177L714.753 448.777L688.348 470.66L613.802 529.304V389.5L596.523 359Z" fill="#699DEE"/>
</svg>
