<svg width="367" height="282" viewBox="0 0 367 282" fill="none" xmlns="http://www.w3.org/2000/svg">
<g filter="url(#filter0_d)">
<path fill-rule="evenodd" clip-rule="evenodd" d="M179 92L111 39V145L179 92Z" fill="#FFC100"/>
<path fill-rule="evenodd" clip-rule="evenodd" d="M252.26 44.81V135.66L274.01 170V5.65607e-07L183.5 71.16L93.0002 0.0100006V170.01L114.75 125.21V44.82L183.5 98.86L252.26 44.81Z" fill="#FFC100"/>
<path d="M114.75 137.19L165.88 96.99L184 82L194 90.5L253 137.19L274.01 169.99L183.51 98.84L93 170L93 -1.52588e-05L114.75 44.8L114.75 137.19Z" fill="#FFC100"/>
<path fill-rule="evenodd" clip-rule="evenodd" d="M103 21L93 -1.52588e-05L93 170L102.985 145.5V5.13L103 21Z" fill="#FFC100"/>
</g>
<path d="M37.8789 240H31.9941V220.818L21.6396 239.034C21.3851 239.498 21.0257 239.85 20.5615 240.09C20.1123 240.329 19.6257 240.449 19.1016 240.449C18.5924 240.449 18.1133 240.329 17.6641 240.09C17.2298 239.85 16.8854 239.498 16.6309 239.034L6.23145 220.818V240H0.391602V210.284C0.391602 209.61 0.586263 209.011 0.975586 208.487C1.37988 207.963 1.90397 207.611 2.54785 207.432C2.8623 207.357 3.17676 207.334 3.49121 207.364C3.80566 207.379 4.10514 207.447 4.38965 207.566C4.68913 207.671 4.95866 207.828 5.19824 208.038C5.43783 208.233 5.63997 208.472 5.80469 208.757L19.1016 231.869L32.3984 208.757C32.7428 208.188 33.2145 207.784 33.8135 207.544C34.4274 207.304 35.0638 207.267 35.7227 207.432C36.3516 207.611 36.8682 207.963 37.2725 208.487C37.6768 209.011 37.8789 209.61 37.8789 210.284V240Z" fill="#D9D9D9"/>
<path d="M70.6719 242.336C70.6719 243.339 70.5446 244.238 70.29 245.031C70.0355 245.84 69.6986 246.544 69.2793 247.143C68.86 247.756 68.3734 248.273 67.8193 248.692C67.2653 249.127 66.6813 249.479 66.0674 249.748C65.4684 250.018 64.862 250.212 64.248 250.332C63.6341 250.467 63.0501 250.534 62.4961 250.534H51.9619V244.694H62.4961C63.2747 244.694 63.8587 244.492 64.248 244.088C64.6374 243.684 64.832 243.1 64.832 242.336V215.72H70.6719V242.336ZM62.4961 240H51.9619C51.1234 240 50.2249 239.858 49.2666 239.573C48.3232 239.289 47.4398 238.825 46.6162 238.181C45.7926 237.522 45.1113 236.676 44.5723 235.643C44.0332 234.594 43.7637 233.314 43.7637 231.802V215.72H49.6035V231.802C49.6035 232.565 49.8057 233.149 50.21 233.554C50.6143 233.958 51.2132 234.16 52.0068 234.16H62.4961V240Z" fill="#D9D9D9"/>
<path d="M123.994 226.523C123.994 228.485 123.65 230.289 122.961 231.937C122.287 233.584 121.351 235.006 120.153 236.204C118.955 237.387 117.533 238.315 115.886 238.989C114.239 239.663 112.449 240 110.518 240H94.75C94.3307 240 93.9414 239.925 93.582 239.775C93.2227 239.626 92.9082 239.423 92.6387 239.169C92.3841 238.899 92.182 238.585 92.0322 238.226C91.8825 237.866 91.8076 237.477 91.8076 237.058V210.733C91.8076 210.329 91.8825 209.947 92.0322 209.588C92.182 209.229 92.3841 208.914 92.6387 208.645C92.9082 208.375 93.2227 208.165 93.582 208.016C93.9414 207.866 94.3307 207.791 94.75 207.791H110.518C112.449 207.791 114.239 208.128 115.886 208.802C117.533 209.476 118.955 210.411 120.153 211.609C121.351 212.792 122.287 214.215 122.961 215.877C123.65 217.524 123.994 219.321 123.994 221.268V226.523ZM118.154 221.268C118.154 220.13 117.967 219.089 117.593 218.145C117.233 217.202 116.717 216.401 116.043 215.742C115.369 215.068 114.561 214.552 113.617 214.192C112.689 213.818 111.656 213.631 110.518 213.631H97.6475V234.16H110.518C111.656 234.16 112.689 233.98 113.617 233.621C114.561 233.247 115.369 232.73 116.043 232.071C116.717 231.397 117.233 230.596 117.593 229.668C117.967 228.725 118.154 227.676 118.154 226.523V221.268Z" fill="#D9D9D9"/>
<path d="M150.184 221.56H137.044C136.25 221.56 135.651 221.762 135.247 222.166C134.843 222.555 134.641 223.132 134.641 223.895V240H128.801V223.895C128.801 222.892 128.928 221.994 129.183 221.2C129.437 220.407 129.774 219.71 130.193 219.111C130.628 218.497 131.122 217.981 131.676 217.562C132.23 217.127 132.806 216.775 133.405 216.506C134.019 216.236 134.633 216.042 135.247 215.922C135.876 215.787 136.46 215.72 136.999 215.72H150.184V221.56Z" fill="#D9D9D9"/>
<path d="M180.079 223.761C180.079 224.569 179.937 225.445 179.652 226.389C179.368 227.317 178.904 228.186 178.26 228.994C177.631 229.788 176.8 230.454 175.767 230.993C174.748 231.532 173.506 231.802 172.038 231.802H161.504V226.254H172.038C172.832 226.254 173.446 226.014 173.88 225.535C174.314 225.041 174.531 224.435 174.531 223.716C174.531 222.952 174.284 222.353 173.79 221.919C173.311 221.485 172.727 221.268 172.038 221.268H161.504C160.71 221.268 160.096 221.515 159.662 222.009C159.228 222.488 159.011 223.087 159.011 223.806V231.959C159.011 232.738 159.25 233.344 159.729 233.778C160.224 234.213 160.83 234.43 161.549 234.43H172.038V240H161.504C160.695 240 159.819 239.858 158.876 239.573C157.948 239.289 157.079 238.832 156.271 238.203C155.477 237.559 154.811 236.728 154.271 235.71C153.732 234.677 153.463 233.426 153.463 231.959V223.761C153.463 222.952 153.605 222.084 153.89 221.155C154.174 220.212 154.631 219.343 155.26 218.55C155.904 217.741 156.735 217.067 157.753 216.528C158.786 215.989 160.036 215.72 161.504 215.72H172.038C172.847 215.72 173.715 215.862 174.644 216.146C175.587 216.431 176.455 216.895 177.249 217.539C178.058 218.168 178.731 218.999 179.271 220.032C179.81 221.05 180.079 222.293 180.079 223.761Z" fill="#D9D9D9"/>
<path d="M208.896 231.959C208.896 232.768 208.754 233.644 208.47 234.587C208.185 235.515 207.721 236.384 207.077 237.192C206.448 237.986 205.617 238.652 204.584 239.191C203.566 239.73 202.323 240 200.855 240H190.321C189.513 240 188.637 239.858 187.693 239.573C186.765 239.289 185.896 238.832 185.088 238.203C184.294 237.559 183.628 236.728 183.089 235.71C182.55 234.677 182.28 233.426 182.28 231.959C182.28 231.15 182.423 230.274 182.707 229.331C182.992 228.388 183.448 227.519 184.077 226.726C184.721 225.917 185.552 225.243 186.57 224.704C187.604 224.165 188.854 223.895 190.321 223.895H200.855V229.466H190.321C189.528 229.466 188.914 229.713 188.479 230.207C188.045 230.686 187.828 231.285 187.828 232.004C187.828 232.768 188.075 233.367 188.569 233.801C189.078 234.22 189.677 234.43 190.366 234.43H200.855C201.649 234.43 202.263 234.19 202.697 233.711C203.132 233.232 203.349 232.633 203.349 231.914V223.761C203.349 222.997 203.109 222.391 202.63 221.941C202.166 221.492 201.574 221.268 200.855 221.268H188.03V215.72H200.855C201.664 215.72 202.533 215.862 203.461 216.146C204.404 216.431 205.273 216.895 206.066 217.539C206.875 218.168 207.549 218.999 208.088 220.032C208.627 221.05 208.896 222.293 208.896 223.761V231.959Z" fill="#D9D9D9"/>
<path d="M235.558 240H229.718V223.895C229.718 223.132 229.516 222.555 229.111 222.166C228.707 221.762 228.108 221.56 227.314 221.56H219.723V240H213.883V218.617C213.883 218.213 213.958 217.839 214.107 217.494C214.257 217.135 214.467 216.828 214.736 216.573C215.006 216.304 215.32 216.094 215.68 215.944C216.039 215.795 216.421 215.72 216.825 215.72H227.359C228.168 215.72 229.036 215.862 229.965 216.146C230.893 216.431 231.777 216.888 232.615 217.517V215.72H240.521C241.076 215.72 241.66 215.787 242.273 215.922C242.887 216.042 243.494 216.236 244.093 216.506C244.707 216.775 245.291 217.127 245.845 217.562C246.399 217.981 246.885 218.497 247.305 219.111C247.724 219.71 248.061 220.407 248.315 221.2C248.57 221.994 248.697 222.892 248.697 223.895V240H242.857V223.895C242.857 223.132 242.663 222.555 242.273 222.166C241.899 221.762 241.315 221.56 240.521 221.56H235.266C235.46 222.278 235.558 223.057 235.558 223.895V240Z" fill="#D9D9D9"/>
<path d="M275.583 220.953H296.09V207.791H301.93V240H296.09V226.838H275.583V240H269.743V207.791H275.583V220.953Z" fill="#D9D9D9"/>
<path d="M334.543 237.058C334.543 237.477 334.468 237.866 334.318 238.226C334.169 238.585 333.959 238.899 333.689 239.169C333.435 239.423 333.128 239.626 332.769 239.775C332.424 239.925 332.05 240 331.646 240H318.438C317.72 240 316.949 239.918 316.125 239.753C315.316 239.588 314.515 239.326 313.722 238.967C312.928 238.592 312.157 238.128 311.408 237.574C310.674 237.005 310.031 236.324 309.477 235.53C308.923 234.722 308.473 233.793 308.129 232.745C307.799 231.697 307.635 230.514 307.635 229.196V215.72H313.475V229.196C313.475 229.96 313.602 230.649 313.856 231.263C314.126 231.862 314.485 232.378 314.935 232.812C315.384 233.247 315.908 233.584 316.507 233.823C317.121 234.048 317.78 234.16 318.483 234.16H328.703V215.72H334.543V237.058Z" fill="#D9D9D9"/>
<path d="M366.797 231.802C366.797 232.356 366.729 232.94 366.595 233.554C366.475 234.168 366.28 234.782 366.011 235.395C365.741 235.994 365.389 236.571 364.955 237.125C364.536 237.679 364.019 238.173 363.405 238.607C362.806 239.027 362.11 239.364 361.316 239.618C360.523 239.873 359.624 240 358.621 240H348.087C347.533 240 346.949 239.94 346.335 239.82C345.721 239.686 345.107 239.483 344.493 239.214C343.894 238.944 343.318 238.6 342.764 238.181C342.21 237.746 341.715 237.23 341.281 236.631C340.862 236.017 340.525 235.313 340.271 234.52C340.016 233.711 339.889 232.805 339.889 231.802V205.455H345.729V231.802C345.729 232.52 345.953 233.097 346.402 233.531C346.852 233.951 347.413 234.16 348.087 234.16H358.621C359.355 234.16 359.924 233.943 360.328 233.509C360.747 233.075 360.957 232.506 360.957 231.802V223.895C360.957 223.162 360.74 222.593 360.306 222.188C359.871 221.769 359.31 221.56 358.621 221.56H348.087V215.72H358.621C359.175 215.72 359.759 215.787 360.373 215.922C360.987 216.042 361.593 216.236 362.192 216.506C362.806 216.775 363.39 217.127 363.944 217.562C364.498 217.981 364.985 218.497 365.404 219.111C365.824 219.71 366.16 220.407 366.415 221.2C366.67 221.994 366.797 222.892 366.797 223.895V231.802Z" fill="#D9D9D9"/>
<path d="M204.261 270.656V276H202.767V263.15H206.291C207.867 263.15 209.03 263.452 209.78 264.056C210.536 264.659 210.914 265.567 210.914 266.78C210.914 268.479 210.053 269.628 208.33 270.226L211.819 276H210.053L206.941 270.656H204.261ZM204.261 269.373H206.309C207.363 269.373 208.137 269.165 208.629 268.749C209.121 268.327 209.367 267.697 209.367 266.859C209.367 266.01 209.115 265.397 208.611 265.022C208.113 264.647 207.311 264.46 206.203 264.46H204.261V269.373ZM217.743 276.176C216.319 276.176 215.194 275.742 214.368 274.875C213.548 274.008 213.138 272.804 213.138 271.263C213.138 269.71 213.519 268.477 214.28 267.562C215.048 266.648 216.076 266.191 217.365 266.191C218.572 266.191 219.527 266.59 220.23 267.387C220.934 268.178 221.285 269.224 221.285 270.524V271.447H214.649C214.679 272.578 214.963 273.437 215.502 274.022C216.047 274.608 216.812 274.901 217.796 274.901C218.833 274.901 219.858 274.685 220.872 274.251V275.552C220.356 275.774 219.867 275.933 219.404 276.026C218.947 276.126 218.394 276.176 217.743 276.176ZM217.348 267.413C216.574 267.413 215.956 267.665 215.493 268.169C215.036 268.673 214.767 269.37 214.685 270.261H219.721C219.721 269.341 219.516 268.638 219.105 268.151C218.695 267.659 218.109 267.413 217.348 267.413ZM230.338 274.708H230.259C229.585 275.687 228.577 276.176 227.235 276.176C225.976 276.176 224.994 275.745 224.291 274.884C223.594 274.022 223.245 272.798 223.245 271.21C223.245 269.622 223.597 268.389 224.3 267.51C225.003 266.631 225.981 266.191 227.235 266.191C228.542 266.191 229.544 266.666 230.241 267.615H230.355L230.294 266.921L230.259 266.244V262.324H231.718V276H230.531L230.338 274.708ZM227.42 274.954C228.416 274.954 229.137 274.685 229.582 274.146C230.033 273.601 230.259 272.725 230.259 271.518V271.21C230.259 269.845 230.03 268.872 229.573 268.292C229.122 267.706 228.398 267.413 227.402 267.413C226.547 267.413 225.891 267.747 225.434 268.415C224.982 269.077 224.757 270.015 224.757 271.228C224.757 272.458 224.982 273.387 225.434 274.014C225.885 274.641 226.547 274.954 227.42 274.954ZM238.89 276.176C237.466 276.176 236.341 275.742 235.515 274.875C234.694 274.008 234.284 272.804 234.284 271.263C234.284 269.71 234.665 268.477 235.427 267.562C236.194 266.648 237.223 266.191 238.512 266.191C239.719 266.191 240.674 266.59 241.377 267.387C242.08 268.178 242.432 269.224 242.432 270.524V271.447H235.796C235.825 272.578 236.109 273.437 236.648 274.022C237.193 274.608 237.958 274.901 238.942 274.901C239.979 274.901 241.005 274.685 242.019 274.251V275.552C241.503 275.774 241.014 275.933 240.551 276.026C240.094 276.126 239.54 276.176 238.89 276.176ZM238.494 267.413C237.721 267.413 237.103 267.665 236.64 268.169C236.183 268.673 235.913 269.37 235.831 270.261H240.867C240.867 269.341 240.662 268.638 240.252 268.151C239.842 267.659 239.256 267.413 238.494 267.413ZM251.142 273.372C251.142 274.269 250.808 274.96 250.14 275.446C249.472 275.933 248.534 276.176 247.327 276.176C246.05 276.176 245.054 275.974 244.339 275.569V274.216C244.802 274.45 245.297 274.635 245.824 274.77C246.357 274.904 246.87 274.972 247.362 274.972C248.124 274.972 248.71 274.852 249.12 274.611C249.53 274.365 249.735 273.993 249.735 273.495C249.735 273.12 249.571 272.801 249.243 272.537C248.921 272.268 248.288 271.951 247.345 271.588C246.448 271.254 245.81 270.964 245.429 270.718C245.054 270.466 244.772 270.182 244.585 269.865C244.403 269.549 244.312 269.171 244.312 268.731C244.312 267.946 244.632 267.328 245.271 266.877C245.909 266.42 246.785 266.191 247.898 266.191C248.936 266.191 249.949 266.402 250.939 266.824L250.421 268.011C249.454 267.612 248.578 267.413 247.793 267.413C247.102 267.413 246.58 267.521 246.229 267.738C245.877 267.955 245.701 268.254 245.701 268.635C245.701 268.893 245.766 269.112 245.895 269.294C246.029 269.476 246.243 269.648 246.536 269.812C246.829 269.977 247.392 270.214 248.224 270.524C249.366 270.94 250.137 271.359 250.535 271.781C250.939 272.203 251.142 272.733 251.142 273.372ZM254.982 276H253.523V266.367H254.982V276ZM253.4 263.757C253.4 263.423 253.482 263.18 253.646 263.027C253.811 262.869 254.016 262.79 254.262 262.79C254.496 262.79 254.698 262.869 254.868 263.027C255.038 263.186 255.123 263.429 255.123 263.757C255.123 264.085 255.038 264.331 254.868 264.495C254.698 264.653 254.496 264.732 254.262 264.732C254.016 264.732 253.811 264.653 253.646 264.495C253.482 264.331 253.4 264.085 253.4 263.757ZM265.96 266.367V267.29L264.176 267.501C264.34 267.706 264.486 267.976 264.615 268.31C264.744 268.638 264.809 269.01 264.809 269.426C264.809 270.369 264.486 271.122 263.842 271.685C263.197 272.247 262.312 272.528 261.188 272.528C260.9 272.528 260.631 272.505 260.379 272.458C259.758 272.786 259.447 273.199 259.447 273.697C259.447 273.961 259.556 274.157 259.772 274.286C259.989 274.409 260.361 274.471 260.889 274.471H262.594C263.637 274.471 264.437 274.69 264.993 275.13C265.556 275.569 265.837 276.208 265.837 277.046C265.837 278.112 265.409 278.924 264.554 279.48C263.698 280.043 262.45 280.324 260.81 280.324C259.55 280.324 258.577 280.09 257.892 279.621C257.212 279.152 256.872 278.49 256.872 277.635C256.872 277.049 257.06 276.542 257.435 276.114C257.81 275.687 258.337 275.396 259.017 275.244C258.771 275.133 258.562 274.96 258.393 274.726C258.229 274.491 258.146 274.219 258.146 273.908C258.146 273.557 258.24 273.249 258.428 272.985C258.615 272.722 258.911 272.467 259.315 272.221C258.817 272.016 258.41 271.667 258.094 271.175C257.783 270.683 257.628 270.12 257.628 269.487C257.628 268.433 257.944 267.621 258.577 267.053C259.21 266.479 260.106 266.191 261.267 266.191C261.771 266.191 262.225 266.25 262.629 266.367H265.96ZM258.278 277.617C258.278 278.139 258.498 278.534 258.938 278.804C259.377 279.073 260.007 279.208 260.827 279.208C262.052 279.208 262.957 279.023 263.543 278.654C264.135 278.291 264.431 277.796 264.431 277.169C264.431 276.647 264.27 276.284 263.947 276.079C263.625 275.88 263.019 275.78 262.128 275.78H260.379C259.717 275.78 259.201 275.938 258.832 276.255C258.463 276.571 258.278 277.025 258.278 277.617ZM259.069 269.452C259.069 270.126 259.26 270.636 259.641 270.981C260.021 271.327 260.552 271.5 261.231 271.5C262.655 271.5 263.367 270.809 263.367 269.426C263.367 267.979 262.646 267.255 261.205 267.255C260.52 267.255 259.992 267.439 259.623 267.809C259.254 268.178 259.069 268.726 259.069 269.452ZM274.529 276V269.769C274.529 268.983 274.351 268.397 273.993 268.011C273.636 267.624 273.076 267.431 272.314 267.431C271.307 267.431 270.568 267.703 270.1 268.248C269.631 268.793 269.396 269.692 269.396 270.946V276H267.938V266.367H269.124L269.361 267.686H269.432C269.73 267.211 270.149 266.845 270.688 266.587C271.228 266.323 271.828 266.191 272.49 266.191C273.65 266.191 274.523 266.473 275.109 267.035C275.695 267.592 275.988 268.485 275.988 269.716V276H274.529ZM286.781 274.972C287.039 274.972 287.288 274.954 287.528 274.919C287.769 274.878 287.959 274.837 288.1 274.796V275.912C287.941 275.988 287.707 276.05 287.396 276.097C287.092 276.149 286.816 276.176 286.57 276.176C284.707 276.176 283.775 275.194 283.775 273.231V267.501H282.396V266.798L283.775 266.191L284.391 264.135H285.234V266.367H288.029V267.501H285.234V273.17C285.234 273.75 285.372 274.195 285.647 274.506C285.923 274.816 286.301 274.972 286.781 274.972ZM296.625 276V269.769C296.625 268.983 296.446 268.397 296.089 268.011C295.731 267.624 295.172 267.431 294.41 267.431C293.396 267.431 292.655 267.706 292.187 268.257C291.724 268.808 291.492 269.71 291.492 270.964V276H290.033V262.324H291.492V266.464C291.492 266.962 291.469 267.375 291.422 267.703H291.51C291.797 267.24 292.204 266.877 292.731 266.613C293.265 266.344 293.871 266.209 294.551 266.209C295.729 266.209 296.61 266.49 297.196 267.053C297.788 267.609 298.084 268.497 298.084 269.716V276H296.625ZM305.159 276.176C303.735 276.176 302.61 275.742 301.784 274.875C300.964 274.008 300.554 272.804 300.554 271.263C300.554 269.71 300.935 268.477 301.696 267.562C302.464 266.648 303.492 266.191 304.781 266.191C305.988 266.191 306.943 266.59 307.646 267.387C308.35 268.178 308.701 269.224 308.701 270.524V271.447H302.065C302.095 272.578 302.379 273.437 302.918 274.022C303.463 274.608 304.228 274.901 305.212 274.901C306.249 274.901 307.274 274.685 308.288 274.251V275.552C307.772 275.774 307.283 275.933 306.82 276.026C306.363 276.126 305.81 276.176 305.159 276.176ZM304.764 267.413C303.99 267.413 303.372 267.665 302.909 268.169C302.452 268.673 302.183 269.37 302.101 270.261H307.137C307.137 269.341 306.932 268.638 306.521 268.151C306.111 267.659 305.525 267.413 304.764 267.413ZM320.215 267.501H317.763V276H316.304V267.501H314.581V266.842L316.304 266.314V265.778C316.304 263.411 317.338 262.228 319.406 262.228C319.916 262.228 320.514 262.33 321.199 262.535L320.821 263.704C320.259 263.522 319.778 263.432 319.38 263.432C318.829 263.432 318.422 263.616 318.158 263.985C317.895 264.349 317.763 264.935 317.763 265.743V266.367H320.215V267.501ZM323.344 266.367V272.616C323.344 273.401 323.522 273.987 323.88 274.374C324.237 274.761 324.797 274.954 325.559 274.954C326.566 274.954 327.302 274.679 327.765 274.128C328.233 273.577 328.468 272.678 328.468 271.43V266.367H329.927V276H328.723L328.512 274.708H328.433C328.134 275.183 327.718 275.546 327.185 275.798C326.657 276.05 326.054 276.176 325.374 276.176C324.202 276.176 323.323 275.897 322.737 275.341C322.157 274.784 321.867 273.894 321.867 272.669V266.367H323.344ZM336.141 274.972C336.398 274.972 336.647 274.954 336.888 274.919C337.128 274.878 337.318 274.837 337.459 274.796V275.912C337.301 275.988 337.066 276.05 336.756 276.097C336.451 276.149 336.176 276.176 335.93 276.176C334.066 276.176 333.135 275.194 333.135 273.231V267.501H331.755V266.798L333.135 266.191L333.75 264.135H334.594V266.367H337.389V267.501H334.594V273.17C334.594 273.75 334.731 274.195 335.007 274.506C335.282 274.816 335.66 274.972 336.141 274.972ZM340.764 266.367V272.616C340.764 273.401 340.942 273.987 341.3 274.374C341.657 274.761 342.217 274.954 342.979 274.954C343.986 274.954 344.722 274.679 345.185 274.128C345.653 273.577 345.888 272.678 345.888 271.43V266.367H347.347V276H346.143L345.932 274.708H345.853C345.554 275.183 345.138 275.546 344.604 275.798C344.077 276.05 343.474 276.176 342.794 276.176C341.622 276.176 340.743 275.897 340.157 275.341C339.577 274.784 339.287 273.894 339.287 272.669V266.367H340.764ZM354.844 266.191C355.271 266.191 355.655 266.227 355.995 266.297L355.793 267.65C355.395 267.562 355.043 267.519 354.738 267.519C353.959 267.519 353.291 267.835 352.734 268.468C352.184 269.101 351.908 269.889 351.908 270.832V276H350.449V266.367H351.653L351.82 268.151H351.891C352.248 267.524 352.679 267.041 353.183 266.701C353.687 266.361 354.24 266.191 354.844 266.191ZM361.866 276.176C360.442 276.176 359.317 275.742 358.491 274.875C357.671 274.008 357.261 272.804 357.261 271.263C357.261 269.71 357.642 268.477 358.403 267.562C359.171 266.648 360.199 266.191 361.488 266.191C362.695 266.191 363.65 266.59 364.354 267.387C365.057 268.178 365.408 269.224 365.408 270.524V271.447H358.772C358.802 272.578 359.086 273.437 359.625 274.022C360.17 274.608 360.935 274.901 361.919 274.901C362.956 274.901 363.981 274.685 364.995 274.251V275.552C364.479 275.774 363.99 275.933 363.527 276.026C363.07 276.126 362.517 276.176 361.866 276.176ZM361.471 267.413C360.697 267.413 360.079 267.665 359.616 268.169C359.159 268.673 358.89 269.37 358.808 270.261H363.844C363.844 269.341 363.639 268.638 363.229 268.151C362.818 267.659 362.232 267.413 361.471 267.413Z" fill="#A0A0A0"/>
<path fill-rule="evenodd" clip-rule="evenodd" d="M179 92L111 39V145L179 92Z" fill="#535353"/>
<path fill-rule="evenodd" clip-rule="evenodd" d="M201.13 85.01L252.26 44.81V135.66L274.01 170V-1.52588e-05L183.5 71.16L93 0.00998479V170.01L114.75 125.21V44.82L165.88 85.02L183.5 98.86L201.13 85.01Z" fill="#FFC100"/>
<path d="M114.75 137.19L165.88 96.99L184 82L194 90.5L252.5 137.19L274.01 169.99L183.51 98.84L92.9998 170L92.9998 -3.10832e-05L114.75 44.8L114.75 137.19Z" fill="#699DEE"/>
<path fill-rule="evenodd" clip-rule="evenodd" d="M103 21L93 -1.52588e-05V170L102.985 145.5V5.12998L103 21Z" fill="#FFC100"/>
<defs>
<filter id="filter0_d" x="93" y="-1.52588e-05" width="195.01" height="182.01" filterUnits="userSpaceOnUse" color-interpolation-filters="sRGB">
<feFlood flood-opacity="0" result="BackgroundImageFix"/>
<feColorMatrix in="SourceAlpha" type="matrix" values="0 0 0 0 0 0 0 0 0 0 0 0 0 0 0 0 0 0 127 0"/>
<feOffset dx="11" dy="9"/>
<feGaussianBlur stdDeviation="1.5"/>
<feColorMatrix type="matrix" values="0 0 0 0 0 0 0 0 0 0 0 0 0 0 0 0 0 0 0.25 0"/>
<feBlend mode="normal" in2="BackgroundImageFix" result="effect1_dropShadow"/>
<feBlend mode="normal" in="SourceGraphic" in2="effect1_dropShadow" result="shape"/>
</filter>
</defs>
</svg>
