<svg width="486" height="91" viewBox="0 0 486 91" fill="none" xmlns="http://www.w3.org/2000/svg">
<path fill-rule="evenodd" clip-rule="evenodd" d="M36.7175 39.3966L7.68555 16.7687V62.0245L36.7175 39.3966Z" fill="#FFC100"/>
<path fill-rule="evenodd" clip-rule="evenodd" d="M68.0117 19.245V58.3576L77.2763 72.698V0.118034L38.6382 30.5162L0 0.118034V72.698L9.30731 53.571V19.245L38.6382 42.3425L68.0117 19.245Z" fill="#FFC100"/>
<path d="M9.30731 58.6943L31.124 41.5313L38.8516 35.1272L43.121 38.7562L68.3106 58.6943L77.2763 72.698L38.6382 42.2998L0 72.698V0.118034L9.30731 19.245V58.6943Z" fill="#FFC100"/>
<path fill-rule="evenodd" clip-rule="evenodd" d="M36.7175 39.3966L7.68555 16.7687V62.0245L36.7175 39.3966Z" fill="#1D262D"/>
<path fill-rule="evenodd" clip-rule="evenodd" d="M43.0273 38.7493L68.0499 18.9947V58.3576L43.0273 38.7493Z" fill="white"/>
<path d="M58.4478 35.8103H59.259V39.7382H56.0996V38.9697H58.4478V35.8103Z" fill="#699DEE"/>
<path d="M58.9184 45.6299C55.2467 45.6299 52.3008 42.6414 52.3008 39.0124C52.3008 35.3834 55.2894 32.3948 58.9184 32.3948C62.5901 32.3948 65.536 35.3834 65.536 39.0124H64.6821C64.6821 35.8103 62.0777 33.2487 58.9184 33.2487C55.759 33.2487 53.1547 35.853 53.1547 39.0124C53.1547 42.1717 55.759 44.7761 58.9184 44.7761V45.6299Z" fill="#1D262D"/>
<path d="M65.1087 41.0617C64.7672 40.0797 64.1267 38.8843 63.4863 38.1585L65.1087 38.7562L66.7311 38.1585C66.0907 38.8843 65.4503 40.1224 65.1087 41.0617Z" fill="#1D262D"/>
<path d="M156.878 48.5449H150.993V29.3633L140.639 47.5791C140.384 48.0433 140.025 48.3952 139.561 48.6348C139.111 48.8743 138.625 48.9941 138.101 48.9941C137.591 48.9941 137.112 48.8743 136.663 48.6348C136.229 48.3952 135.884 48.0433 135.63 47.5791L125.23 29.3633V48.5449H119.391V18.8291C119.391 18.1553 119.585 17.5563 119.975 17.0322C120.379 16.5081 120.903 16.1562 121.547 15.9766C121.861 15.9017 122.176 15.8792 122.49 15.9092C122.805 15.9242 123.104 15.9915 123.389 16.1113C123.688 16.2161 123.958 16.3734 124.197 16.583C124.437 16.7777 124.639 17.0173 124.804 17.3018L138.101 40.4141L151.397 17.3018C151.742 16.7327 152.214 16.3285 152.812 16.0889C153.426 15.8493 154.063 15.8118 154.722 15.9766C155.351 16.1562 155.867 16.5081 156.271 17.0322C156.676 17.5563 156.878 18.1553 156.878 18.8291V48.5449Z" fill="#1D262D"/>
<path d="M189.671 50.8809C189.671 51.8841 189.544 52.7826 189.289 53.5762C189.035 54.3848 188.698 55.0885 188.278 55.6875C187.859 56.3014 187.372 56.818 186.818 57.2373C186.264 57.6715 185.68 58.0234 185.066 58.293C184.467 58.5625 183.861 58.7572 183.247 58.877C182.633 59.0117 182.049 59.0791 181.495 59.0791H170.961V53.2393H181.495C182.274 53.2393 182.858 53.0371 183.247 52.6328C183.636 52.2285 183.831 51.6445 183.831 50.8809V24.2646H189.671V50.8809ZM181.495 48.5449H170.961C170.122 48.5449 169.224 48.4027 168.266 48.1182C167.322 47.8337 166.439 47.3695 165.615 46.7256C164.792 46.0667 164.11 45.2207 163.571 44.1875C163.032 43.1393 162.763 41.859 162.763 40.3467V24.2646H168.603V40.3467C168.603 41.1104 168.805 41.6943 169.209 42.0986C169.613 42.5029 170.212 42.7051 171.006 42.7051H181.495V48.5449Z" fill="#1D262D"/>
<path d="M242.993 35.0684C242.993 37.0299 242.649 38.8343 241.96 40.4814C241.286 42.1286 240.35 43.5511 239.152 44.749C237.954 45.932 236.532 46.8604 234.885 47.5342C233.238 48.208 231.448 48.5449 229.517 48.5449H213.749C213.33 48.5449 212.94 48.4701 212.581 48.3203C212.222 48.1706 211.907 47.9684 211.638 47.7139C211.383 47.4443 211.181 47.1299 211.031 46.7705C210.882 46.4111 210.807 46.0218 210.807 45.6025V19.2783C210.807 18.874 210.882 18.4922 211.031 18.1328C211.181 17.7734 211.383 17.459 211.638 17.1895C211.907 16.9199 212.222 16.7103 212.581 16.5605C212.94 16.4108 213.33 16.3359 213.749 16.3359H229.517C231.448 16.3359 233.238 16.6729 234.885 17.3467C236.532 18.0205 237.954 18.9564 239.152 20.1543C240.35 21.3372 241.286 22.7598 241.96 24.4219C242.649 26.069 242.993 27.8659 242.993 29.8125V35.0684ZM237.153 29.8125C237.153 28.6745 236.966 27.6338 236.592 26.6904C236.232 25.7471 235.716 24.946 235.042 24.2871C234.368 23.6133 233.56 23.0967 232.616 22.7373C231.688 22.363 230.655 22.1758 229.517 22.1758H216.646V42.7051H229.517C230.655 42.7051 231.688 42.5254 232.616 42.166C233.56 41.7917 234.368 41.2751 235.042 40.6162C235.716 39.9424 236.232 39.1413 236.592 38.2129C236.966 37.2695 237.153 36.2214 237.153 35.0684V29.8125Z" fill="#1D262D"/>
<path d="M269.183 30.1045H256.043C255.249 30.1045 254.65 30.3066 254.246 30.7109C253.842 31.1003 253.64 31.6768 253.64 32.4404V48.5449H247.8V32.4404C247.8 31.4372 247.927 30.5387 248.182 29.7451C248.436 28.9515 248.773 28.2552 249.192 27.6562C249.627 27.0423 250.121 26.5257 250.675 26.1064C251.229 25.6722 251.805 25.3203 252.404 25.0508C253.018 24.7812 253.632 24.5866 254.246 24.4668C254.875 24.332 255.459 24.2646 255.998 24.2646H269.183V30.1045Z" fill="#1D262D"/>
<path d="M299.078 32.3057C299.078 33.1143 298.936 33.9902 298.651 34.9336C298.367 35.862 297.903 36.7305 297.259 37.5391C296.63 38.3327 295.799 38.999 294.766 39.5381C293.747 40.0771 292.505 40.3467 291.037 40.3467H280.503V34.7988H291.037C291.831 34.7988 292.445 34.5592 292.879 34.0801C293.313 33.5859 293.53 32.9795 293.53 32.2607C293.53 31.4971 293.283 30.8981 292.789 30.4639C292.31 30.0296 291.726 29.8125 291.037 29.8125H280.503C279.709 29.8125 279.095 30.0596 278.661 30.5537C278.227 31.0329 278.01 31.6318 278.01 32.3506V40.5039C278.01 41.2826 278.249 41.889 278.729 42.3232C279.223 42.7575 279.829 42.9746 280.548 42.9746H291.037V48.5449H280.503C279.694 48.5449 278.818 48.4027 277.875 48.1182C276.947 47.8337 276.078 47.377 275.27 46.748C274.476 46.1042 273.81 45.2731 273.271 44.2549C272.731 43.2217 272.462 41.9714 272.462 40.5039V32.3057C272.462 31.4971 272.604 30.6286 272.889 29.7002C273.173 28.7568 273.63 27.8883 274.259 27.0947C274.903 26.2861 275.734 25.6123 276.752 25.0732C277.785 24.5342 279.035 24.2646 280.503 24.2646H291.037C291.846 24.2646 292.714 24.4069 293.643 24.6914C294.586 24.9759 295.454 25.4401 296.248 26.084C297.057 26.7129 297.73 27.5439 298.27 28.5771C298.809 29.5954 299.078 30.8382 299.078 32.3057Z" fill="#1D262D"/>
<path d="M327.896 40.5039C327.896 41.3125 327.753 42.1885 327.469 43.1318C327.184 44.0602 326.72 44.9287 326.076 45.7373C325.447 46.5309 324.616 47.1973 323.583 47.7363C322.565 48.2754 321.322 48.5449 319.854 48.5449H309.32C308.512 48.5449 307.636 48.4027 306.692 48.1182C305.764 47.8337 304.896 47.377 304.087 46.748C303.293 46.1042 302.627 45.2731 302.088 44.2549C301.549 43.2217 301.279 41.9714 301.279 40.5039C301.279 39.6953 301.422 38.8193 301.706 37.876C301.991 36.9326 302.447 36.0641 303.076 35.2705C303.72 34.4619 304.551 33.7881 305.569 33.249C306.603 32.71 307.853 32.4404 309.32 32.4404H319.854V38.0107H309.32C308.527 38.0107 307.913 38.2578 307.479 38.752C307.044 39.2311 306.827 39.8301 306.827 40.5488C306.827 41.3125 307.074 41.9115 307.568 42.3457C308.077 42.765 308.676 42.9746 309.365 42.9746H319.854C320.648 42.9746 321.262 42.735 321.696 42.2559C322.131 41.7767 322.348 41.1777 322.348 40.459V32.3057C322.348 31.542 322.108 30.9355 321.629 30.4863C321.165 30.0371 320.573 29.8125 319.854 29.8125H307.029V24.2646H319.854C320.663 24.2646 321.532 24.4069 322.46 24.6914C323.403 24.9759 324.272 25.4401 325.065 26.084C325.874 26.7129 326.548 27.5439 327.087 28.5771C327.626 29.5954 327.896 30.8382 327.896 32.3057V40.5039Z" fill="#1D262D"/>
<path d="M354.557 48.5449H348.717V32.4404C348.717 31.6768 348.515 31.1003 348.11 30.7109C347.706 30.3066 347.107 30.1045 346.313 30.1045H338.722V48.5449H332.882V27.1621C332.882 26.7578 332.957 26.3835 333.106 26.0391C333.256 25.6797 333.466 25.3727 333.735 25.1182C334.005 24.8486 334.319 24.639 334.679 24.4893C335.038 24.3395 335.42 24.2646 335.824 24.2646H346.358C347.167 24.2646 348.035 24.4069 348.964 24.6914C349.892 24.9759 350.776 25.4326 351.614 26.0615V24.2646H359.521C360.075 24.2646 360.659 24.332 361.272 24.4668C361.886 24.5866 362.493 24.7812 363.092 25.0508C363.706 25.3203 364.29 25.6722 364.844 26.1064C365.398 26.5257 365.884 27.0423 366.304 27.6562C366.723 28.2552 367.06 28.9515 367.314 29.7451C367.569 30.5387 367.696 31.4372 367.696 32.4404V48.5449H361.856V32.4404C361.856 31.6768 361.662 31.1003 361.272 30.7109C360.898 30.3066 360.314 30.1045 359.521 30.1045H354.265C354.459 30.8232 354.557 31.6019 354.557 32.4404V48.5449Z" fill="#1D262D"/>
<path d="M394.582 29.498H415.089V16.3359H420.929V48.5449H415.089V35.3828H394.582V48.5449H388.742V16.3359H394.582V29.498Z" fill="#1D262D"/>
<path d="M453.542 45.6025C453.542 46.0218 453.467 46.4111 453.317 46.7705C453.168 47.1299 452.958 47.4443 452.688 47.7139C452.434 47.9684 452.127 48.1706 451.768 48.3203C451.423 48.4701 451.049 48.5449 450.645 48.5449H437.438C436.719 48.5449 435.948 48.4626 435.124 48.2979C434.315 48.1331 433.514 47.8711 432.721 47.5117C431.927 47.1374 431.156 46.6732 430.407 46.1191C429.674 45.5501 429.03 44.8688 428.476 44.0752C427.922 43.2666 427.472 42.3382 427.128 41.29C426.799 40.2419 426.634 39.0589 426.634 37.7412V24.2646H432.474V37.7412C432.474 38.5049 432.601 39.1937 432.855 39.8076C433.125 40.4066 433.484 40.9232 433.934 41.3574C434.383 41.7917 434.907 42.1286 435.506 42.3682C436.12 42.5928 436.779 42.7051 437.482 42.7051H447.702V24.2646H453.542V45.6025Z" fill="#1D262D"/>
<path d="M485.796 40.3467C485.796 40.9007 485.729 41.4847 485.594 42.0986C485.474 42.7126 485.279 43.3265 485.01 43.9404C484.74 44.5394 484.388 45.1159 483.954 45.6699C483.535 46.224 483.018 46.7181 482.404 47.1523C481.805 47.5716 481.109 47.9085 480.315 48.1631C479.522 48.4176 478.623 48.5449 477.62 48.5449H467.086C466.532 48.5449 465.948 48.485 465.334 48.3652C464.72 48.2305 464.106 48.0283 463.492 47.7588C462.893 47.4893 462.317 47.1449 461.763 46.7256C461.209 46.2913 460.715 45.7747 460.28 45.1758C459.861 44.5618 459.524 43.8581 459.27 43.0645C459.015 42.2559 458.888 41.3499 458.888 40.3467V14H464.728V40.3467C464.728 41.0654 464.952 41.6419 465.401 42.0762C465.851 42.4954 466.412 42.7051 467.086 42.7051H477.62C478.354 42.7051 478.923 42.488 479.327 42.0537C479.746 41.6195 479.956 41.0505 479.956 40.3467V32.4404C479.956 31.7067 479.739 31.1377 479.305 30.7334C478.87 30.3141 478.309 30.1045 477.62 30.1045H467.086V24.2646H477.62C478.174 24.2646 478.758 24.332 479.372 24.4668C479.986 24.5866 480.592 24.7812 481.191 25.0508C481.805 25.3203 482.389 25.6722 482.943 26.1064C483.497 26.5257 483.984 27.0423 484.403 27.6562C484.823 28.2552 485.16 28.9515 485.414 29.7451C485.669 30.5387 485.796 31.4372 485.796 32.4404V40.3467Z" fill="#1D262D"/>
<path d="M339.767 84.5449V71.6953H341.261V84.5449H339.767ZM351.166 84.5449V78.3135C351.166 77.5283 350.987 76.9424 350.63 76.5557C350.272 76.1689 349.713 75.9756 348.951 75.9756C347.943 75.9756 347.205 76.248 346.736 76.793C346.268 77.3379 346.033 78.2373 346.033 79.4912V84.5449H344.574V74.9121H345.761L345.998 76.2305H346.068C346.367 75.7559 346.786 75.3896 347.325 75.1318C347.864 74.8682 348.465 74.7363 349.127 74.7363C350.287 74.7363 351.16 75.0176 351.746 75.5801C352.332 76.1367 352.625 77.0303 352.625 78.2607V84.5449H351.166ZM359.973 76.0459H357.521V84.5449H356.062V76.0459H354.339V75.3867L356.062 74.8594V74.3232C356.062 71.9561 357.096 70.7725 359.164 70.7725C359.674 70.7725 360.271 70.875 360.957 71.0801L360.579 72.249C360.017 72.0674 359.536 71.9766 359.138 71.9766C358.587 71.9766 358.18 72.1611 357.916 72.5303C357.652 72.8936 357.521 73.4795 357.521 74.2881V74.9121H359.973V76.0459ZM363.189 84.5449H361.73V74.9121H363.189V84.5449ZM361.607 72.3018C361.607 71.9678 361.689 71.7246 361.854 71.5723C362.018 71.4141 362.223 71.335 362.469 71.335C362.703 71.335 362.905 71.4141 363.075 71.5723C363.245 71.7305 363.33 71.9736 363.33 72.3018C363.33 72.6299 363.245 72.876 363.075 73.04C362.905 73.1982 362.703 73.2773 362.469 73.2773C362.223 73.2773 362.018 73.1982 361.854 73.04C361.689 72.876 361.607 72.6299 361.607 72.3018ZM372.875 84.5449V78.3135C372.875 77.5283 372.696 76.9424 372.339 76.5557C371.981 76.1689 371.422 75.9756 370.66 75.9756C369.652 75.9756 368.914 76.248 368.445 76.793C367.977 77.3379 367.742 78.2373 367.742 79.4912V84.5449H366.283V74.9121H367.47L367.707 76.2305H367.777C368.076 75.7559 368.495 75.3896 369.034 75.1318C369.573 74.8682 370.174 74.7363 370.836 74.7363C371.996 74.7363 372.869 75.0176 373.455 75.5801C374.041 76.1367 374.334 77.0303 374.334 78.2607V84.5449H372.875ZM378.799 84.5449H377.34V74.9121H378.799V84.5449ZM377.217 72.3018C377.217 71.9678 377.299 71.7246 377.463 71.5723C377.627 71.4141 377.832 71.335 378.078 71.335C378.312 71.335 378.515 71.4141 378.685 71.5723C378.854 71.7305 378.939 71.9736 378.939 72.3018C378.939 72.6299 378.854 72.876 378.685 73.04C378.515 73.1982 378.312 73.2773 378.078 73.2773C377.832 73.2773 377.627 73.1982 377.463 73.04C377.299 72.876 377.217 72.6299 377.217 72.3018ZM385.004 83.5166C385.262 83.5166 385.511 83.499 385.751 83.4639C385.991 83.4229 386.182 83.3818 386.322 83.3408V84.457C386.164 84.5332 385.93 84.5947 385.619 84.6416C385.314 84.6943 385.039 84.7207 384.793 84.7207C382.93 84.7207 381.998 83.7393 381.998 81.7764V76.0459H380.618V75.3428L381.998 74.7363L382.613 72.6797H383.457V74.9121H386.252V76.0459H383.457V81.7148C383.457 82.2949 383.595 82.7402 383.87 83.0508C384.146 83.3613 384.523 83.5166 385.004 83.5166ZM392.325 84.7207C390.901 84.7207 389.776 84.2871 388.95 83.4199C388.13 82.5527 387.72 81.3486 387.72 79.8076C387.72 78.2549 388.101 77.0215 388.862 76.1074C389.63 75.1934 390.658 74.7363 391.947 74.7363C393.154 74.7363 394.109 75.1348 394.812 75.9316C395.516 76.7227 395.867 77.7686 395.867 79.0693V79.9922H389.231C389.261 81.123 389.545 81.9814 390.084 82.5674C390.629 83.1533 391.394 83.4463 392.378 83.4463C393.415 83.4463 394.44 83.2295 395.454 82.7959V84.0967C394.938 84.3193 394.449 84.4775 393.986 84.5713C393.529 84.6709 392.976 84.7207 392.325 84.7207ZM391.93 75.958C391.156 75.958 390.538 76.21 390.075 76.7139C389.618 77.2178 389.349 77.915 389.267 78.8057H394.303C394.303 77.8857 394.098 77.1826 393.688 76.6963C393.277 76.2041 392.691 75.958 391.93 75.958ZM406.15 83.5166C406.408 83.5166 406.657 83.499 406.897 83.4639C407.138 83.4229 407.328 83.3818 407.469 83.3408V84.457C407.311 84.5332 407.076 84.5947 406.766 84.6416C406.461 84.6943 406.186 84.7207 405.939 84.7207C404.076 84.7207 403.145 83.7393 403.145 81.7764V76.0459H401.765V75.3428L403.145 74.7363L403.76 72.6797H404.604V74.9121H407.398V76.0459H404.604V81.7148C404.604 82.2949 404.741 82.7402 405.017 83.0508C405.292 83.3613 405.67 83.5166 406.15 83.5166ZM415.994 84.5449V78.3135C415.994 77.5283 415.815 76.9424 415.458 76.5557C415.101 76.1689 414.541 75.9756 413.779 75.9756C412.766 75.9756 412.024 76.251 411.556 76.8018C411.093 77.3525 410.861 78.2549 410.861 79.5088V84.5449H409.402V70.8691H410.861V75.0088C410.861 75.5068 410.838 75.9199 410.791 76.248H410.879C411.166 75.7852 411.573 75.4219 412.101 75.1582C412.634 74.8887 413.24 74.7539 413.92 74.7539C415.098 74.7539 415.979 75.0352 416.565 75.5977C417.157 76.1543 417.453 77.042 417.453 78.2607V84.5449H415.994ZM424.528 84.7207C423.104 84.7207 421.979 84.2871 421.153 83.4199C420.333 82.5527 419.923 81.3486 419.923 79.8076C419.923 78.2549 420.304 77.0215 421.065 76.1074C421.833 75.1934 422.861 74.7363 424.15 74.7363C425.357 74.7363 426.312 75.1348 427.016 75.9316C427.719 76.7227 428.07 77.7686 428.07 79.0693V79.9922H421.435C421.464 81.123 421.748 81.9814 422.287 82.5674C422.832 83.1533 423.597 83.4463 424.581 83.4463C425.618 83.4463 426.644 83.2295 427.657 82.7959V84.0967C427.142 84.3193 426.652 84.4775 426.189 84.5713C425.732 84.6709 425.179 84.7207 424.528 84.7207ZM424.133 75.958C423.359 75.958 422.741 76.21 422.278 76.7139C421.821 77.2178 421.552 77.915 421.47 78.8057H426.506C426.506 77.8857 426.301 77.1826 425.891 76.6963C425.48 76.2041 424.895 75.958 424.133 75.958ZM439.584 76.0459H437.132V84.5449H435.673V76.0459H433.95V75.3867L435.673 74.8594V74.3232C435.673 71.9561 436.707 70.7725 438.775 70.7725C439.285 70.7725 439.883 70.875 440.568 71.0801L440.19 72.249C439.628 72.0674 439.147 71.9766 438.749 71.9766C438.198 71.9766 437.791 72.1611 437.527 72.5303C437.264 72.8936 437.132 73.4795 437.132 74.2881V74.9121H439.584V76.0459ZM442.713 74.9121V81.1611C442.713 81.9463 442.892 82.5322 443.249 82.9189C443.606 83.3057 444.166 83.499 444.928 83.499C445.936 83.499 446.671 83.2236 447.134 82.6729C447.603 82.1221 447.837 81.2227 447.837 79.9746V74.9121H449.296V84.5449H448.092L447.881 83.2529H447.802C447.503 83.7275 447.087 84.0908 446.554 84.3428C446.026 84.5947 445.423 84.7207 444.743 84.7207C443.571 84.7207 442.692 84.4424 442.106 83.8857C441.526 83.3291 441.236 82.4385 441.236 81.2139V74.9121H442.713ZM455.51 83.5166C455.768 83.5166 456.017 83.499 456.257 83.4639C456.497 83.4229 456.688 83.3818 456.828 83.3408V84.457C456.67 84.5332 456.436 84.5947 456.125 84.6416C455.82 84.6943 455.545 84.7207 455.299 84.7207C453.436 84.7207 452.504 83.7393 452.504 81.7764V76.0459H451.124V75.3428L452.504 74.7363L453.119 72.6797H453.963V74.9121H456.758V76.0459H453.963V81.7148C453.963 82.2949 454.101 82.7402 454.376 83.0508C454.651 83.3613 455.029 83.5166 455.51 83.5166ZM460.133 74.9121V81.1611C460.133 81.9463 460.312 82.5322 460.669 82.9189C461.026 83.3057 461.586 83.499 462.348 83.499C463.355 83.499 464.091 83.2236 464.554 82.6729C465.022 82.1221 465.257 81.2227 465.257 79.9746V74.9121H466.716V84.5449H465.512L465.301 83.2529H465.222C464.923 83.7275 464.507 84.0908 463.974 84.3428C463.446 84.5947 462.843 84.7207 462.163 84.7207C460.991 84.7207 460.112 84.4424 459.526 83.8857C458.946 83.3291 458.656 82.4385 458.656 81.2139V74.9121H460.133ZM474.213 74.7363C474.641 74.7363 475.024 74.7715 475.364 74.8418L475.162 76.1953C474.764 76.1074 474.412 76.0635 474.107 76.0635C473.328 76.0635 472.66 76.3799 472.104 77.0127C471.553 77.6455 471.277 78.4336 471.277 79.377V84.5449H469.818V74.9121H471.022L471.189 76.6963H471.26C471.617 76.0693 472.048 75.5859 472.552 75.2461C473.056 74.9062 473.609 74.7363 474.213 74.7363ZM481.235 84.7207C479.812 84.7207 478.687 84.2871 477.86 83.4199C477.04 82.5527 476.63 81.3486 476.63 79.8076C476.63 78.2549 477.011 77.0215 477.772 76.1074C478.54 75.1934 479.568 74.7363 480.857 74.7363C482.064 74.7363 483.02 75.1348 483.723 75.9316C484.426 76.7227 484.777 77.7686 484.777 79.0693V79.9922H478.142C478.171 81.123 478.455 81.9814 478.994 82.5674C479.539 83.1533 480.304 83.4463 481.288 83.4463C482.325 83.4463 483.351 83.2295 484.364 82.7959V84.0967C483.849 84.3193 483.359 84.4775 482.896 84.5713C482.439 84.6709 481.886 84.7207 481.235 84.7207ZM480.84 75.958C480.066 75.958 479.448 76.21 478.985 76.7139C478.528 77.2178 478.259 77.915 478.177 78.8057H483.213C483.213 77.8857 483.008 77.1826 482.598 76.6963C482.188 76.2041 481.602 75.958 480.84 75.958Z" fill="#1D262D"/>
<path d="M4.66494 9V62.4386L0.429688 72.913V73L38.9297 42.5281L77.4297 73L68.1982 58.3204L43.3965 38.9758L39.1424 35.338L31.4424 41.7577L9.70372 58.9624V17.9478L4.66494 9Z" fill="#699DEE"/>
</svg>
