<svg width="367" height="282" viewBox="0 0 367 282" fill="none" xmlns="http://www.w3.org/2000/svg">
<g filter="url(#filter0_d)">
<path fill-rule="evenodd" clip-rule="evenodd" d="M179 92L111 39V145L179 92Z" fill="#FFC100"/>
<path fill-rule="evenodd" clip-rule="evenodd" d="M252.26 44.81V135.66L274.01 170V5.65607e-07L183.5 71.16L93.0002 0.0100006V170.01L114.75 125.21V44.82L183.5 98.86L252.26 44.81Z" fill="#FFC100"/>
<path d="M114.75 137.19L165.88 96.99L184 82L194 90.5L253 137.19L274.01 169.99L183.51 98.84L93 170L93 -1.52588e-05L114.75 44.8L114.75 137.19Z" fill="#FFC100"/>
<path fill-rule="evenodd" clip-rule="evenodd" d="M103 21L93 -1.52588e-05L93 170L102.985 145.5V5.13L103 21Z" fill="#FFC100"/>
</g>
<path d="M37.8789 240H31.9941V220.818L21.6396 239.034C21.3851 239.498 21.0257 239.85 20.5615 240.09C20.1123 240.329 19.6257 240.449 19.1016 240.449C18.5924 240.449 18.1133 240.329 17.6641 240.09C17.2298 239.85 16.8854 239.498 16.6309 239.034L6.23145 220.818V240H0.391602V210.284C0.391602 209.61 0.586263 209.011 0.975586 208.487C1.37988 207.963 1.90397 207.611 2.54785 207.432C2.8623 207.357 3.17676 207.334 3.49121 207.364C3.80566 207.379 4.10514 207.447 4.38965 207.566C4.68913 207.671 4.95866 207.828 5.19824 208.038C5.43783 208.233 5.63997 208.472 5.80469 208.757L19.1016 231.869L32.3984 208.757C32.7428 208.188 33.2145 207.784 33.8135 207.544C34.4274 207.304 35.0638 207.267 35.7227 207.432C36.3516 207.611 36.8682 207.963 37.2725 208.487C37.6768 209.011 37.8789 209.61 37.8789 210.284V240Z" fill="#D9D9D9"/>
<path d="M70.6719 242.336C70.6719 243.339 70.5446 244.238 70.29 245.031C70.0355 245.84 69.6986 246.544 69.2793 247.143C68.86 247.756 68.3734 248.273 67.8193 248.692C67.2653 249.127 66.6813 249.479 66.0674 249.748C65.4684 250.018 64.862 250.212 64.248 250.332C63.6341 250.467 63.0501 250.534 62.4961 250.534H51.9619V244.694H62.4961C63.2747 244.694 63.8587 244.492 64.248 244.088C64.6374 243.684 64.832 243.1 64.832 242.336V215.72H70.6719V242.336ZM62.4961 240H51.9619C51.1234 240 50.2249 239.858 49.2666 239.573C48.3232 239.289 47.4398 238.825 46.6162 238.181C45.7926 237.522 45.1113 236.676 44.5723 235.643C44.0332 234.594 43.7637 233.314 43.7637 231.802V215.72H49.6035V231.802C49.6035 232.565 49.8057 233.149 50.21 233.554C50.6143 233.958 51.2132 234.16 52.0068 234.16H62.4961V240Z" fill="#D9D9D9"/>
<path d="M123.994 226.523C123.994 228.485 123.65 230.289 122.961 231.937C122.287 233.584 121.351 235.006 120.153 236.204C118.955 237.387 117.533 238.315 115.886 238.989C114.239 239.663 112.449 240 110.518 240H94.75C94.3307 240 93.9414 239.925 93.582 239.775C93.2227 239.626 92.9082 239.423 92.6387 239.169C92.3841 238.899 92.182 238.585 92.0322 238.226C91.8825 237.866 91.8076 237.477 91.8076 237.058V210.733C91.8076 210.329 91.8825 209.947 92.0322 209.588C92.182 209.229 92.3841 208.914 92.6387 208.645C92.9082 208.375 93.2227 208.165 93.582 208.016C93.9414 207.866 94.3307 207.791 94.75 207.791H110.518C112.449 207.791 114.239 208.128 115.886 208.802C117.533 209.476 118.955 210.411 120.153 211.609C121.351 212.792 122.287 214.215 122.961 215.877C123.65 217.524 123.994 219.321 123.994 221.268V226.523ZM118.154 221.268C118.154 220.13 117.967 219.089 117.593 218.145C117.233 217.202 116.717 216.401 116.043 215.742C115.369 215.068 114.561 214.552 113.617 214.192C112.689 213.818 111.656 213.631 110.518 213.631H97.6475V234.16H110.518C111.656 234.16 112.689 233.98 113.617 233.621C114.561 233.247 115.369 232.73 116.043 232.071C116.717 231.397 117.233 230.596 117.593 229.668C117.967 228.725 118.154 227.676 118.154 226.523V221.268Z" fill="#D9D9D9"/>
<path d="M150.184 221.56H137.044C136.25 221.56 135.651 221.762 135.247 222.166C134.843 222.555 134.641 223.132 134.641 223.895V240H128.801V223.895C128.801 222.892 128.928 221.994 129.183 221.2C129.437 220.407 129.774 219.71 130.193 219.111C130.628 218.497 131.122 217.981 131.676 217.562C132.23 217.127 132.806 216.775 133.405 216.506C134.019 216.236 134.633 216.042 135.247 215.922C135.876 215.787 136.46 215.72 136.999 215.72H150.184V221.56Z" fill="#D9D9D9"/>
<path d="M180.079 223.761C180.079 224.569 179.937 225.445 179.652 226.389C179.368 227.317 178.904 228.186 178.26 228.994C177.631 229.788 176.8 230.454 175.767 230.993C174.748 231.532 173.506 231.802 172.038 231.802H161.504V226.254H172.038C172.832 226.254 173.446 226.014 173.88 225.535C174.314 225.041 174.531 224.435 174.531 223.716C174.531 222.952 174.284 222.353 173.79 221.919C173.311 221.485 172.727 221.268 172.038 221.268H161.504C160.71 221.268 160.096 221.515 159.662 222.009C159.228 222.488 159.011 223.087 159.011 223.806V231.959C159.011 232.738 159.25 233.344 159.729 233.778C160.224 234.213 160.83 234.43 161.549 234.43H172.038V240H161.504C160.695 240 159.819 239.858 158.876 239.573C157.948 239.289 157.079 238.832 156.271 238.203C155.477 237.559 154.811 236.728 154.271 235.71C153.732 234.677 153.463 233.426 153.463 231.959V223.761C153.463 222.952 153.605 222.084 153.89 221.155C154.174 220.212 154.631 219.343 155.26 218.55C155.904 217.741 156.735 217.067 157.753 216.528C158.786 215.989 160.036 215.72 161.504 215.72H172.038C172.847 215.72 173.715 215.862 174.644 216.146C175.587 216.431 176.455 216.895 177.249 217.539C178.058 218.168 178.731 218.999 179.271 220.032C179.81 221.05 180.079 222.293 180.079 223.761Z" fill="#D9D9D9"/>
<path d="M208.896 231.959C208.896 232.768 208.754 233.644 208.47 234.587C208.185 235.515 207.721 236.384 207.077 237.192C206.448 237.986 205.617 238.652 204.584 239.191C203.566 239.73 202.323 240 200.855 240H190.321C189.513 240 188.637 239.858 187.693 239.573C186.765 239.289 185.896 238.832 185.088 238.203C184.294 237.559 183.628 236.728 183.089 235.71C182.55 234.677 182.28 233.426 182.28 231.959C182.28 231.15 182.423 230.274 182.707 229.331C182.992 228.388 183.448 227.519 184.077 226.726C184.721 225.917 185.552 225.243 186.57 224.704C187.604 224.165 188.854 223.895 190.321 223.895H200.855V229.466H190.321C189.528 229.466 188.914 229.713 188.479 230.207C188.045 230.686 187.828 231.285 187.828 232.004C187.828 232.768 188.075 233.367 188.569 233.801C189.078 234.22 189.677 234.43 190.366 234.43H200.855C201.649 234.43 202.263 234.19 202.697 233.711C203.132 233.232 203.349 232.633 203.349 231.914V223.761C203.349 222.997 203.109 222.391 202.63 221.941C202.166 221.492 201.574 221.268 200.855 221.268H188.03V215.72H200.855C201.664 215.72 202.533 215.862 203.461 216.146C204.404 216.431 205.273 216.895 206.066 217.539C206.875 218.168 207.549 218.999 208.088 220.032C208.627 221.05 208.896 222.293 208.896 223.761V231.959Z" fill="#D9D9D9"/>
<path d="M235.558 240H229.718V223.895C229.718 223.132 229.516 222.555 229.111 222.166C228.707 221.762 228.108 221.56 227.314 221.56H219.723V240H213.883V218.617C213.883 218.213 213.958 217.839 214.107 217.494C214.257 217.135 214.467 216.828 214.736 216.573C215.006 216.304 215.32 216.094 215.68 215.944C216.039 215.795 216.421 215.72 216.825 215.72H227.359C228.168 215.72 229.036 215.862 229.965 216.146C230.893 216.431 231.777 216.888 232.615 217.517V215.72H240.521C241.076 215.72 241.66 215.787 242.273 215.922C242.887 216.042 243.494 216.236 244.093 216.506C244.707 216.775 245.291 217.127 245.845 217.562C246.399 217.981 246.885 218.497 247.305 219.111C247.724 219.71 248.061 220.407 248.315 221.2C248.57 221.994 248.697 222.892 248.697 223.895V240H242.857V223.895C242.857 223.132 242.663 222.555 242.273 222.166C241.899 221.762 241.315 221.56 240.521 221.56H235.266C235.46 222.278 235.558 223.057 235.558 223.895V240Z" fill="#D9D9D9"/>
<path d="M275.583 220.953H296.09V207.791H301.93V240H296.09V226.838H275.583V240H269.743V207.791H275.583V220.953Z" fill="#D9D9D9"/>
<path d="M334.543 237.058C334.543 237.477 334.468 237.866 334.318 238.226C334.169 238.585 333.959 238.899 333.689 239.169C333.435 239.423 333.128 239.626 332.769 239.775C332.424 239.925 332.05 240 331.646 240H318.438C317.72 240 316.949 239.918 316.125 239.753C315.316 239.588 314.515 239.326 313.722 238.967C312.928 238.592 312.157 238.128 311.408 237.574C310.674 237.005 310.031 236.324 309.477 235.53C308.923 234.722 308.473 233.793 308.129 232.745C307.799 231.697 307.635 230.514 307.635 229.196V215.72H313.475V229.196C313.475 229.96 313.602 230.649 313.856 231.263C314.126 231.862 314.485 232.378 314.935 232.812C315.384 233.247 315.908 233.584 316.507 233.823C317.121 234.048 317.78 234.16 318.483 234.16H328.703V215.72H334.543V237.058Z" fill="#D9D9D9"/>
<path d="M366.797 231.802C366.797 232.356 366.729 232.94 366.595 233.554C366.475 234.168 366.28 234.782 366.011 235.395C365.741 235.994 365.389 236.571 364.955 237.125C364.536 237.679 364.019 238.173 363.405 238.607C362.806 239.027 362.11 239.364 361.316 239.618C360.523 239.873 359.624 240 358.621 240H348.087C347.533 240 346.949 239.94 346.335 239.82C345.721 239.686 345.107 239.483 344.493 239.214C343.894 238.944 343.318 238.6 342.764 238.181C342.21 237.746 341.715 237.23 341.281 236.631C340.862 236.017 340.525 235.313 340.271 234.52C340.016 233.711 339.889 232.805 339.889 231.802V205.455H345.729V231.802C345.729 232.52 345.953 233.097 346.402 233.531C346.852 233.951 347.413 234.16 348.087 234.16H358.621C359.355 234.16 359.924 233.943 360.328 233.509C360.747 233.075 360.957 232.506 360.957 231.802V223.895C360.957 223.162 360.74 222.593 360.306 222.188C359.871 221.769 359.31 221.56 358.621 221.56H348.087V215.72H358.621C359.175 215.72 359.759 215.787 360.373 215.922C360.987 216.042 361.593 216.236 362.192 216.506C362.806 216.775 363.39 217.127 363.944 217.562C364.498 217.981 364.985 218.497 365.404 219.111C365.824 219.71 366.16 220.407 366.415 221.2C366.67 221.994 366.797 222.892 366.797 223.895V231.802Z" fill="#D9D9D9"/>
<path d="M220.767 276V263.15H222.261V276H220.767ZM232.166 276V269.769C232.166 268.983 231.987 268.397 231.63 268.011C231.272 267.624 230.713 267.431 229.951 267.431C228.943 267.431 228.205 267.703 227.736 268.248C227.268 268.793 227.033 269.692 227.033 270.946V276H225.574V266.367H226.761L226.998 267.686H227.068C227.367 267.211 227.786 266.845 228.325 266.587C228.864 266.323 229.465 266.191 230.127 266.191C231.287 266.191 232.16 266.473 232.746 267.035C233.332 267.592 233.625 268.485 233.625 269.716V276H232.166ZM240.973 267.501H238.521V276H237.062V267.501H235.339V266.842L237.062 266.314V265.778C237.062 263.411 238.096 262.228 240.164 262.228C240.674 262.228 241.271 262.33 241.957 262.535L241.579 263.704C241.017 263.522 240.536 263.432 240.138 263.432C239.587 263.432 239.18 263.616 238.916 263.985C238.652 264.349 238.521 264.935 238.521 265.743V266.367H240.973V267.501ZM244.189 276H242.73V266.367H244.189V276ZM242.607 263.757C242.607 263.423 242.689 263.18 242.854 263.027C243.018 262.869 243.223 262.79 243.469 262.79C243.703 262.79 243.905 262.869 244.075 263.027C244.245 263.186 244.33 263.429 244.33 263.757C244.33 264.085 244.245 264.331 244.075 264.495C243.905 264.653 243.703 264.732 243.469 264.732C243.223 264.732 243.018 264.653 242.854 264.495C242.689 264.331 242.607 264.085 242.607 263.757ZM253.875 276V269.769C253.875 268.983 253.696 268.397 253.339 268.011C252.981 267.624 252.422 267.431 251.66 267.431C250.652 267.431 249.914 267.703 249.445 268.248C248.977 268.793 248.742 269.692 248.742 270.946V276H247.283V266.367H248.47L248.707 267.686H248.777C249.076 267.211 249.495 266.845 250.034 266.587C250.573 266.323 251.174 266.191 251.836 266.191C252.996 266.191 253.869 266.473 254.455 267.035C255.041 267.592 255.334 268.485 255.334 269.716V276H253.875ZM259.799 276H258.34V266.367H259.799V276ZM258.217 263.757C258.217 263.423 258.299 263.18 258.463 263.027C258.627 262.869 258.832 262.79 259.078 262.79C259.312 262.79 259.515 262.869 259.685 263.027C259.854 263.186 259.939 263.429 259.939 263.757C259.939 264.085 259.854 264.331 259.685 264.495C259.515 264.653 259.312 264.732 259.078 264.732C258.832 264.732 258.627 264.653 258.463 264.495C258.299 264.331 258.217 264.085 258.217 263.757ZM266.004 274.972C266.262 274.972 266.511 274.954 266.751 274.919C266.991 274.878 267.182 274.837 267.322 274.796V275.912C267.164 275.988 266.93 276.05 266.619 276.097C266.314 276.149 266.039 276.176 265.793 276.176C263.93 276.176 262.998 275.194 262.998 273.231V267.501H261.618V266.798L262.998 266.191L263.613 264.135H264.457V266.367H267.252V267.501H264.457V273.17C264.457 273.75 264.595 274.195 264.87 274.506C265.146 274.816 265.523 274.972 266.004 274.972ZM273.325 276.176C271.901 276.176 270.776 275.742 269.95 274.875C269.13 274.008 268.72 272.804 268.72 271.263C268.72 269.71 269.101 268.477 269.862 267.562C270.63 266.648 271.658 266.191 272.947 266.191C274.154 266.191 275.109 266.59 275.812 267.387C276.516 268.178 276.867 269.224 276.867 270.524V271.447H270.231C270.261 272.578 270.545 273.437 271.084 274.022C271.629 274.608 272.394 274.901 273.378 274.901C274.415 274.901 275.44 274.685 276.454 274.251V275.552C275.938 275.774 275.449 275.933 274.986 276.026C274.529 276.126 273.976 276.176 273.325 276.176ZM272.93 267.413C272.156 267.413 271.538 267.665 271.075 268.169C270.618 268.673 270.349 269.37 270.267 270.261H275.303C275.303 269.341 275.098 268.638 274.688 268.151C274.277 267.659 273.691 267.413 272.93 267.413ZM287.15 274.972C287.408 274.972 287.657 274.954 287.897 274.919C288.138 274.878 288.328 274.837 288.469 274.796V275.912C288.311 275.988 288.076 276.05 287.766 276.097C287.461 276.149 287.186 276.176 286.939 276.176C285.076 276.176 284.145 275.194 284.145 273.231V267.501H282.765V266.798L284.145 266.191L284.76 264.135H285.604V266.367H288.398V267.501H285.604V273.17C285.604 273.75 285.741 274.195 286.017 274.506C286.292 274.816 286.67 274.972 287.15 274.972ZM296.994 276V269.769C296.994 268.983 296.815 268.397 296.458 268.011C296.101 267.624 295.541 267.431 294.779 267.431C293.766 267.431 293.024 267.706 292.556 268.257C292.093 268.808 291.861 269.71 291.861 270.964V276H290.402V262.324H291.861V266.464C291.861 266.962 291.838 267.375 291.791 267.703H291.879C292.166 267.24 292.573 266.877 293.101 266.613C293.634 266.344 294.24 266.209 294.92 266.209C296.098 266.209 296.979 266.49 297.565 267.053C298.157 267.609 298.453 268.497 298.453 269.716V276H296.994ZM305.528 276.176C304.104 276.176 302.979 275.742 302.153 274.875C301.333 274.008 300.923 272.804 300.923 271.263C300.923 269.71 301.304 268.477 302.065 267.562C302.833 266.648 303.861 266.191 305.15 266.191C306.357 266.191 307.312 266.59 308.016 267.387C308.719 268.178 309.07 269.224 309.07 270.524V271.447H302.435C302.464 272.578 302.748 273.437 303.287 274.022C303.832 274.608 304.597 274.901 305.581 274.901C306.618 274.901 307.644 274.685 308.657 274.251V275.552C308.142 275.774 307.652 275.933 307.189 276.026C306.732 276.126 306.179 276.176 305.528 276.176ZM305.133 267.413C304.359 267.413 303.741 267.665 303.278 268.169C302.821 268.673 302.552 269.37 302.47 270.261H307.506C307.506 269.341 307.301 268.638 306.891 268.151C306.48 267.659 305.895 267.413 305.133 267.413ZM320.584 267.501H318.132V276H316.673V267.501H314.95V266.842L316.673 266.314V265.778C316.673 263.411 317.707 262.228 319.775 262.228C320.285 262.228 320.883 262.33 321.568 262.535L321.19 263.704C320.628 263.522 320.147 263.432 319.749 263.432C319.198 263.432 318.791 263.616 318.527 263.985C318.264 264.349 318.132 264.935 318.132 265.743V266.367H320.584V267.501ZM323.713 266.367V272.616C323.713 273.401 323.892 273.987 324.249 274.374C324.606 274.761 325.166 274.954 325.928 274.954C326.936 274.954 327.671 274.679 328.134 274.128C328.603 273.577 328.837 272.678 328.837 271.43V266.367H330.296V276H329.092L328.881 274.708H328.802C328.503 275.183 328.087 275.546 327.554 275.798C327.026 276.05 326.423 276.176 325.743 276.176C324.571 276.176 323.692 275.897 323.106 275.341C322.526 274.784 322.236 273.894 322.236 272.669V266.367H323.713ZM336.51 274.972C336.768 274.972 337.017 274.954 337.257 274.919C337.497 274.878 337.688 274.837 337.828 274.796V275.912C337.67 275.988 337.436 276.05 337.125 276.097C336.82 276.149 336.545 276.176 336.299 276.176C334.436 276.176 333.504 275.194 333.504 273.231V267.501H332.124V266.798L333.504 266.191L334.119 264.135H334.963V266.367H337.758V267.501H334.963V273.17C334.963 273.75 335.101 274.195 335.376 274.506C335.651 274.816 336.029 274.972 336.51 274.972ZM341.133 266.367V272.616C341.133 273.401 341.312 273.987 341.669 274.374C342.026 274.761 342.586 274.954 343.348 274.954C344.355 274.954 345.091 274.679 345.554 274.128C346.022 273.577 346.257 272.678 346.257 271.43V266.367H347.716V276H346.512L346.301 274.708H346.222C345.923 275.183 345.507 275.546 344.974 275.798C344.446 276.05 343.843 276.176 343.163 276.176C341.991 276.176 341.112 275.897 340.526 275.341C339.946 274.784 339.656 273.894 339.656 272.669V266.367H341.133ZM355.213 266.191C355.641 266.191 356.024 266.227 356.364 266.297L356.162 267.65C355.764 267.562 355.412 267.519 355.107 267.519C354.328 267.519 353.66 267.835 353.104 268.468C352.553 269.101 352.277 269.889 352.277 270.832V276H350.818V266.367H352.022L352.189 268.151H352.26C352.617 267.524 353.048 267.041 353.552 266.701C354.056 266.361 354.609 266.191 355.213 266.191ZM362.235 276.176C360.812 276.176 359.687 275.742 358.86 274.875C358.04 274.008 357.63 272.804 357.63 271.263C357.63 269.71 358.011 268.477 358.772 267.562C359.54 266.648 360.568 266.191 361.857 266.191C363.064 266.191 364.02 266.59 364.723 267.387C365.426 268.178 365.777 269.224 365.777 270.524V271.447H359.142C359.171 272.578 359.455 273.437 359.994 274.022C360.539 274.608 361.304 274.901 362.288 274.901C363.325 274.901 364.351 274.685 365.364 274.251V275.552C364.849 275.774 364.359 275.933 363.896 276.026C363.439 276.126 362.886 276.176 362.235 276.176ZM361.84 267.413C361.066 267.413 360.448 267.665 359.985 268.169C359.528 268.673 359.259 269.37 359.177 270.261H364.213C364.213 269.341 364.008 268.638 363.598 268.151C363.188 267.659 362.602 267.413 361.84 267.413Z" fill="#A0A0A0"/>
<path fill-rule="evenodd" clip-rule="evenodd" d="M179 92L111 39V145L179 92Z" fill="#535353"/>
<path fill-rule="evenodd" clip-rule="evenodd" d="M201.13 85.01L252.26 44.81V135.66L274.01 170V-1.52588e-05L183.5 71.16L93 0.00998479V170.01L114.75 125.21V44.82L165.88 85.02L183.5 98.86L201.13 85.01Z" fill="#FFC100"/>
<path d="M114.75 137.19L165.88 96.99L184 82L194 90.5L252.5 137.19L274.01 169.99L183.51 98.84L92.9998 170L92.9998 -3.10832e-05L114.75 44.8L114.75 137.19Z" fill="#699DEE"/>
<path fill-rule="evenodd" clip-rule="evenodd" d="M103 21L93 -1.52588e-05V170L102.985 145.5V5.12998L103 21Z" fill="#FFC100"/>
<defs>
<filter id="filter0_d" x="93" y="-1.52588e-05" width="195.01" height="182.01" filterUnits="userSpaceOnUse" color-interpolation-filters="sRGB">
<feFlood flood-opacity="0" result="BackgroundImageFix"/>
<feColorMatrix in="SourceAlpha" type="matrix" values="0 0 0 0 0 0 0 0 0 0 0 0 0 0 0 0 0 0 127 0"/>
<feOffset dx="11" dy="9"/>
<feGaussianBlur stdDeviation="1.5"/>
<feColorMatrix type="matrix" values="0 0 0 0 0 0 0 0 0 0 0 0 0 0 0 0 0 0 0.25 0"/>
<feBlend mode="normal" in2="BackgroundImageFix" result="effect1_dropShadow"/>
<feBlend mode="normal" in="SourceGraphic" in2="effect1_dropShadow" result="shape"/>
</filter>
</defs>
</svg>
